<?xml version="1.0" encoding="utf-8"?>
<!-- Generator: Adobe Illustrator 16.0.0, SVG Export Plug-In . SVG Version: 6.00 Build 0)  -->
<!DOCTYPE svg PUBLIC "-//W3C//DTD SVG 1.1//EN" "http://www.w3.org/Graphics/SVG/1.1/DTD/svg11.dtd">
<svg version="1.1" id="Layer_1" xmlns="http://www.w3.org/2000/svg" xmlns:xlink="http://www.w3.org/1999/xlink" x="0px" y="0px"
	 width="300px" height="110.554px" viewBox="0 0 300 110.554" enable-background="new 0 0 300 110.554" xml:space="preserve">
<g>
	<g>
		<path fill="#808080" d="M35.834,6.25v1.914C35.864,7.503,35.864,6.862,35.834,6.25z"/>
		<path fill="#808080" d="M59.276,26.251c-9.054-1.185-12.972-10.862-13.295-18.086v18.675c0,0,6.585,1.765,2.236,4.707
			C43.34,34.843,40.923,6.25,40.923,6.25h-0.03c0,0-2.417,28.593-7.294,25.295c-4.35-2.941,2.235-4.707,2.235-4.707V8.165
			c-0.322,7.224-4.24,16.902-13.294,18.086c-9.647,3.059-4.235,25.883,8,26.001c-8.471-12.236,10.368-19.648,10.353-7.295
			c0.011-2.394,0.019-2.394,0.03,0c-0.015-12.354,18.824-4.941,10.353,7.295C63.511,52.134,68.923,29.31,59.276,26.251z"/>
		<path fill="#808080" d="M45.981,8.165V6.25C45.952,6.862,45.952,7.503,45.981,8.165z"/>
	</g>
	<path fill="#808080" d="M41.201,49.217l-0.293-0.161l-0.293,0.161c-1.998,1.148-8.378,5.681-7.689,16.432
		c0,0,3.062-6.47,7.689-6.544h0.586c4.627,0.074,7.69,6.544,7.69,6.544C49.579,54.898,43.199,50.366,41.201,49.217z M45.687,58.19
		c-0.235-0.685-1.077-1.85-4.779-2.051c-3.585,0.14-4.544,1.366-4.779,2.051c-0.023,0.083-0.046,0.164-0.068,0.248
		c0,0,0.017-0.096,0.068-0.248c1.143-4.021,3.582-5.609,4.779-6.083C42.105,52.581,44.544,54.169,45.687,58.19
		c0.052,0.152,0.068,0.248,0.068,0.248C45.733,58.354,45.71,58.273,45.687,58.19z"/>
	<path fill="#808080" d="M44.114,80.106c6.445-3.867,9.221-16.338,9.221-16.338c-5.909,10.621-10.627,11.617-12.162,11.625v-0.046
		c0,0-0.092,0.024-0.265,0.038c-0.174-0.014-0.265-0.038-0.265-0.038v0.046c-1.534-0.007-6.253-1.004-12.162-11.625
		c0,0,2.777,12.472,9.222,16.338c0,0-11.8,1.388-7.734,16.659c0,0,2.082-9.618,6.842-7.934l4.098,16.102l4.098-16.102
		c4.76-1.685,6.842,7.934,6.842,7.934C55.913,81.494,44.114,80.106,44.114,80.106z"/>
	<g>
		<path fill="#808080" d="M80.586,60.762h-1.134C79.844,60.779,80.224,60.779,80.586,60.762z"/>
		<path fill="#808080" d="M68.738,74.647c0.703-5.363,6.435-7.683,10.714-7.875H68.39c0,0-1.045,3.901-2.788,1.324
			c-1.954-2.889,14.985-4.32,14.985-4.32v-0.018c0,0-16.938-1.433-14.985-4.321c1.743-2.577,2.788,1.324,2.788,1.324h11.063
			c-4.279-0.191-10.012-2.513-10.714-7.876c-1.813-5.714-15.333-2.508-15.403,4.74c7.248-5.018,11.639,6.141,4.321,6.133
			c1.417,0.006,1.417,0.01,0,0.018c7.318-0.009,2.927,11.152-4.321,6.133C53.404,77.158,66.925,80.364,68.738,74.647z"/>
		<path fill="#808080" d="M79.452,66.772h1.134C80.224,66.754,79.844,66.754,79.452,66.772z"/>
	</g>
	<g>
		<path fill="#808080" d="M0,66.772h1.134C0.742,66.754,0.362,66.754,0,66.772z"/>
		<path fill="#808080" d="M11.848,52.886c-0.702,5.363-6.435,7.685-10.714,7.875h11.063c0,0,1.046-3.901,2.788-1.324
			C16.939,62.325,0,63.758,0,63.758v0.018c0,0,16.939,1.432,14.985,4.32c-1.742,2.577-2.788-1.324-2.788-1.324H1.134
			c4.279,0.192,10.012,2.512,10.714,7.875c1.813,5.716,15.334,2.51,15.403-4.739c-7.249,5.019-11.639-6.142-4.321-6.133
			c-1.418-0.007-1.418-0.011,0-0.018c-7.318,0.008-2.927-11.151,4.321-6.133C27.182,50.377,13.661,47.17,11.848,52.886z"/>
		<path fill="#808080" d="M1.134,60.762H0C0.362,60.779,0.742,60.779,1.134,60.762z"/>
	</g>
</g>
<g>
	<path fill="#FF6100" d="M141.963,16.655l-4.062,5.096v40.841c0,1.772,0.074,3.017,0.222,3.729c0.147,0.714,0.491,1.514,1.034,2.4
		l0.813,1.108h-12.333c0.689-0.936,1.169-1.934,1.44-2.993c0.27-1.06,0.406-2.478,0.406-4.252V31.829l-16.62,20.031L96.025,31.686
		v30.826c0,3.007,0.639,5.447,1.92,7.318h-12.26c1.28-1.821,1.92-4.258,1.92-7.312V21.825l-4.062-5.17h11.3
		c-0.147,0.443-0.222,0.862-0.222,1.256c0,0.738,0.37,1.601,1.108,2.585l17.133,20.53l16.84-20.53
		c1.132-1.378,1.599-2.659,1.403-3.841H141.963z"/>
	<path fill="#FF6100" d="M215.595,69.83H202.67l0.074-1.183c0-1.676-0.049-2.822-0.145-3.438c-0.097-0.616-0.361-1.515-0.795-2.699
		l-3.712-10.036h-16.927l-3.746,9.309c-0.842,2.216-1.264,4.233-1.264,6.054c0,0.345,0,0.714,0,1.107s0,0.689,0,0.885H163.38
		c1.231-1.477,2.338-3.015,3.323-4.616c0.985-1.6,1.922-3.458,2.808-5.576l15.804-37.666c0.394-1.083,0.64-1.747,0.738-1.994
		c0.099-0.344,0.222-0.813,0.369-1.403l0.296-0.96l0.222-0.96h7.312l0.147,0.591l0.296,1.403c0.195,0.886,0.394,1.601,0.591,2.142
		c0.195,0.542,0.344,0.936,0.442,1.182l14.032,37.148c1.034,2.61,2.462,5.392,4.284,8.346l0.738,1.182L215.595,69.83z
		 M196.191,46.188l-6.317-19.233l-7.114,19.241L196.191,46.188z"/>
	<path fill="#FF6100" d="M279.107,69.83h-12.851v-1.259c0-0.79-0.133-1.432-0.396-1.926c-0.528-0.789-1.004-1.554-1.426-2.295
		l-8.301-14.466l-8.047,14.406c-0.738,1.329-1.218,2.352-1.439,3.066c-0.221,0.714-0.332,1.54-0.332,2.474h-12.112l1.034-1.255
		l1.108-1.256c2.215-2.805,4.063-5.39,5.54-7.753l9.674-15.954l-10.709-17.577c-0.641-1.034-1.392-2.179-2.253-3.435
		c-0.862-1.255-1.711-2.4-2.548-3.434l-2.216-2.511h13.146c-0.1,0.688-0.147,1.154-0.147,1.399c0,0.588,0.112,1.177,0.339,1.766
		c0.227,0.588,0.592,1.325,1.095,2.208l8.27,14.711l8.334-14.829c0.486-0.888,0.838-1.763,1.058-2.626
		c0.219-0.863,0.328-1.739,0.328-2.628h12.187c-1.379,1.379-2.537,2.685-3.472,3.915c-0.936,1.231-2.142,3.053-3.618,5.465
		l-10.192,16.913l10.266,16.839c1.969,3.25,3.372,5.417,4.21,6.499C276.474,67.369,277.631,68.55,279.107,69.83z"/>
</g>
<g>
	<path fill="#808080" d="M100.671,94.868l-0.096,0.225c-0.043,0.086-0.075,0.209-0.096,0.369l-0.032,0.257l-0.593,0.85l-0.161,0.337
		l-0.401,0.192c-0.128,0.064-0.272,0.192-0.433,0.385c-0.535,0.15-0.936,0.326-1.203,0.529h-0.305l-0.289,0.064l-0.128,0.272h-0.529
		l-0.064,0.129l-0.208-0.032c-0.032,0-0.102,0.062-0.208,0.185c-0.107,0.123-0.23,0.189-0.369,0.2
		c-0.107-0.064-0.198-0.097-0.272-0.097c-0.161,0-0.391,0.08-0.69,0.241L94,98.83l-0.385,0.272
		c-0.043-0.021-0.112-0.032-0.208-0.032c-0.086,0-0.235,0.032-0.449,0.097c-0.214,0.063-0.39,0.096-0.529,0.096h-0.225
		c-0.118,0-0.331,0.049-0.641,0.145c-0.311,0.097-0.578,0.145-0.802,0.145c-0.171,0-0.326-0.021-0.465-0.064l-0.497,0.145
		l-0.529-0.208l-0.321,0.208l-0.192-0.08l-0.241,0.465l-0.289-0.257l-0.401,0.192l-0.128-0.224
		c-0.075,0.042-0.262,0.074-0.562,0.096l-0.096,0.657l-0.385,0.498l-0.128,0.335c-0.032,0.098-0.208,0.365-0.529,0.803l-0.112-0.096
		h-0.16l0.064-0.563l-0.032-0.817l-0.481-0.321c-0.118-0.117-0.23-0.176-0.337-0.176l-0.657,0.336h-0.497l-0.257-0.192l-0.064-0.272
		l0.289-0.288l0.032-0.241l1.154-0.288c0.085-0.043,0.198-0.064,0.337-0.064c0.128,0,0.192-0.032,0.192-0.097v-0.031l-0.192-0.658
		c-0.021-0.042-0.032-0.102-0.032-0.176c0-0.075,0.021-0.166,0.064-0.273c0.042-0.106,0.064-0.165,0.064-0.176l-0.096-1.588
		l0.161-0.385v-0.754l0.225-0.529l-0.385-0.722l0.385-0.851l-0.193-2.245l0.096-0.754v-0.689l-0.289-0.754v-1.17l-0.369-0.594
		v-0.337l-0.882-0.097l-0.689,0.289l-1.059,0.08c-0.096-0.128-0.158-0.288-0.185-0.481c-0.027-0.192-0.083-0.47-0.168-0.833
		c0.331-0.246,0.614-0.369,0.85-0.369l0.257,0.032c0.053,0,0.133-0.064,0.241-0.192c0.32-0.086,0.7-0.129,1.139-0.129
		c0.267,0.192,0.529,0.289,0.786,0.289c0.085,0,0.208-0.021,0.369-0.064c0.064,0.128,0.128,0.192,0.193,0.192
		c0.042,0,0.229-0.064,0.561-0.192l0.401,0.192l0.481-0.128l0.994,0.225l0.562,0.368l0.722-0.128l0.225,0.417l0.401,0.112
		l0.577,0.353l0.369,0.064l0.465,0.225l0.257-0.032c0.213,0,0.422,0.091,0.625,0.272c0.406,0.011,0.887,0.337,1.443,0.979h0.305
		c0.256,0.257,0.604,0.433,1.042,0.529l0.754,0.594l0.85,0.785c0.171,0.129,0.305,0.192,0.401,0.192c0.032,0,0.118-0.053,0.257-0.16
		l0.145,0.097l0.096,0.529c0.556,0.48,0.983,0.906,1.283,1.274c0.299,0.369,0.468,0.634,0.505,0.794
		c0.037,0.16,0.185,0.315,0.441,0.465v0.417c0,0.225,0.096,0.434,0.289,0.626c0,0.214,0.078,0.401,0.233,0.562
		c0.155,0.16,0.232,0.272,0.232,0.337V94.868z M99.453,95.061l-0.096-0.915l-1.315-1.779h-0.225l-0.369-0.883l-0.385-0.032
		l-0.433-0.336l-0.128-0.466c-0.203-0.192-0.609-0.385-1.219-0.577l-0.257-0.465l-2.598-1.572l-0.465,0.032
		c-0.161,0-0.358-0.069-0.593-0.208c-0.118-0.149-0.246-0.225-0.385-0.225c-0.064,0-0.139,0.021-0.225,0.063l-0.176-0.385
		l-0.481,0.032c-0.043-0.032-0.171-0.063-0.385-0.096s-0.406-0.102-0.577-0.209l-0.128,0.064c0-0.149-0.096-0.225-0.289-0.225
		c-0.449-0.353-1.053-0.529-1.813-0.529c-0.064,0-0.139,0.021-0.224,0.064l0.096,0.368l-0.161,0.498
		c-0.054,0.063-0.08,0.149-0.08,0.256c0,0.183,0.102,0.358,0.305,0.529l-0.337,0.546c0.011,0.054,0.069,0.194,0.177,0.425
		c0.106,0.229,0.16,0.42,0.16,0.569c0,0.043-0.016,0.136-0.048,0.28c-0.032,0.145-0.048,0.238-0.048,0.281
		c0,0.054,0.053,0.214,0.16,0.48l-0.224,0.08l0.096,0.69v1.267l0.128,0.208l-0.369,0.594l0.241,0.225l-0.305,0.818l0.144,0.753
		l-0.336,0.754l0.336,0.626l-0.08,0.657l0.145,0.369l-0.208,0.481l0.305,0.802l2.037-0.241c0.021,0,0.08-0.026,0.176-0.08
		c0.096-0.053,0.187-0.08,0.273-0.08c0.117,0,0.31,0.027,0.577,0.08c0.267,0.054,0.481,0.08,0.642,0.08
		c0.524,0,1.037-0.176,1.54-0.529c0.225-0.021,0.492-0.031,0.802-0.031l0.786,0.031c0.256,0,0.486-0.085,0.689-0.256
		c0.225-0.021,0.438-0.091,0.642-0.209c0.203-0.117,0.337-0.177,0.401-0.177c0.118,0,0.219,0.043,0.305,0.129
		c0.214,0,0.39-0.069,0.529-0.209l0.578-0.063l0.064-0.321l0.241,0.097l0.353-0.16h0.241l0.289-0.369h0.225l1.251-0.946
		L99.453,95.061z"/>
	<path fill="#808080" d="M124.279,84.781l-0.128,0.031l-0.192,0.498l0.192,0.096l-0.096,0.722c-0.064,0.097-0.096,0.203-0.096,0.321
		l0.096,0.433v0.401l-0.16,0.16l0.16,0.192l-0.24,0.593l0.08,0.562l-0.529,1.043l0.128,0.063c-0.043,0.107-0.064,0.241-0.064,0.401
		l0.064,0.497v0.064l-0.369,0.16l0.369,0.818h-0.225l0.096,0.305l-0.241,0.417l0.305,0.561l-0.064,0.225h-0.16
		c-0.075,0-0.112,0.07-0.112,0.209c0,0.246,0.133,0.454,0.401,0.625c-0.214,0.097-0.332,0.401-0.353,0.914l-0.048,0.354l0.176,0.529
		l-0.176,0.4l0.032,1.219l-0.16,0.851l0.337,0.16c-0.043,0.225-0.094,0.388-0.152,0.489c-0.059,0.102-0.088,0.2-0.088,0.297
		c0,0.182,0.112,0.411,0.337,0.689l-0.225,0.064l0.417,0.433l-0.161,0.257l0.465,0.145c-0.064,0.31-0.187,0.572-0.369,0.785
		c-0.193-0.063-0.289-0.207-0.289-0.432l-0.433-0.562l-0.256-0.064l0.128-0.561l-0.529-0.594l0.225-0.289l-0.321-0.497l0.096-0.689
		c-0.043-0.117-0.086-0.225-0.128-0.32l-0.128-0.273l0.257-0.385l-0.128-0.433l0.128-0.289l-0.433-0.337l0.337-0.48l-0.032-2.214
		l0.225-1.7l-0.096-1.684l0.16-0.449l-0.16-0.128l0.096-0.401v-0.593l0.128-0.225l-0.225-0.064l0.16-0.754
		c-0.246,0-0.396-0.08-0.449-0.24h0.449l0.064-0.529l-0.225-0.064l0.16-0.385c0.182-0.149,0.273-0.305,0.273-0.465
		s-0.07-0.326-0.208-0.497l0.208-0.064v-0.289h0.321l0.192-0.465l0.272-0.096C123.889,84.251,124.193,84.427,124.279,84.781z"/>
	<path fill="#808080" d="M163.925,94.532l0.257,0.4l1.122,0.882c0.331,0.278,0.497,0.781,0.497,1.508l0.032,0.497
		c0,0.172-0.134,0.441-0.4,0.811c-0.268,0.368-0.594,0.633-0.979,0.794c-0.064,0.139-0.198,0.208-0.401,0.208h-0.096
		c-0.3,0.3-0.685,0.449-1.155,0.449c-0.139,0.182-0.331,0.337-0.577,0.465l-0.689-0.064l-0.594,0.529l-0.272-0.175l-0.417,0.145
		c-0.471,0.021-0.722,0.064-0.754,0.128l-1.026-0.098c-0.449,0.193-0.775,0.289-0.979,0.289l-0.897-0.064l-0.626,0.289l-0.353-0.064
		c-0.064-0.063-0.129-0.096-0.192-0.096c-0.107,0-0.198,0.053-0.272,0.16h-1.043l-0.305-0.191l-0.225,0.191l-1.571-0.064
		l-0.754-0.127c-0.225,0.105-0.401,0.16-0.529,0.16c-0.235,0-0.546-0.139-0.931-0.418l-0.545,0.225l-0.177-0.191h-0.353
		c-0.406,0-0.791-0.066-1.154-0.201c-0.364-0.134-0.594-0.201-0.69-0.201c-0.042,0-0.106,0.021-0.192,0.064l-1.154-0.818
		l-0.722-0.192c-0.503-0.63-0.754-1.133-0.754-1.507c0-0.129,0.074-0.438,0.225-0.931l0.24,0.032c0.203,0,0.331-0.128,0.385-0.385
		l0.498-0.064l-0.225-0.112l0.353-0.032c0.182-0.214,0.315-0.32,0.4-0.32c0.235,0,0.354,0.198,0.354,0.594
		c-0.289,0.063-0.54,0.214-0.754,0.448c0,0.086-0.086,0.18-0.257,0.281s-0.294,0.185-0.369,0.248L145,98.204v0.562
		c0.363,0.203,0.695,0.492,0.994,0.866l0.401,0.064c0.128,0.021,0.342,0.128,0.642,0.32l0.593-0.064l-0.063-0.192l0.882,0.064
		l-0.192,0.128l0.722,0.129l0.096,0.16h1.523v0.112c0.14-0.117,0.289-0.177,0.449-0.177c0.086,0,0.19,0.024,0.313,0.072
		c0.122,0.049,0.36,0.083,0.713,0.104l0.064,0.192l0.449,0.032h0.497l0.337,0.128l-0.145-0.128c0.299-0.128,0.545-0.192,0.738-0.192
		c0.106,0,0.213,0.054,0.32,0.16c0.192-0.128,0.422-0.192,0.689-0.192c0.235,0,0.497,0.043,0.786,0.128
		c0.139-0.106,0.294-0.16,0.465-0.16c0.16,0,0.326,0.054,0.497,0.16l1.171-0.336l0.24-0.321l1.011,0.128l0.818-0.192l-0.129-0.031
		c0.043-0.043,0.417-0.075,1.123-0.097c0.064-0.074,0.117-0.112,0.16-0.112l0.225,0.032l0.834-0.353l0.16,0.063v-0.16h0.562v-0.064
		c0-0.202,0.171-0.305,0.514-0.305h0.24l0.128-0.128l-0.096-0.128c0.171-0.182,0.299-0.273,0.385-0.273
		c0.246,0,0.369-0.085,0.369-0.256c0.277-0.417,0.417-0.7,0.417-0.851c0-0.513-0.84-1.117-2.519-1.813l-1.443-0.593
		c-0.374,0-0.903-0.129-1.588-0.385c-0.299-0.246-0.668-0.369-1.106-0.369c-0.278,0-0.486,0.021-0.625,0.064l-0.192-0.257
		l-0.466,0.192l-0.368-0.417l-0.514,0.128l-0.93-0.465h-0.594l-0.385-0.289h-0.529l-0.225-0.336l-0.064,0.16h-0.369l-0.465-0.546
		c-1.048-0.01-1.727-0.197-2.036-0.561l-0.354,0.096l-0.225-0.529l-0.529-0.562c-0.288-0.694-0.508-1.133-0.657-1.314l0.128-0.979
		l0.529-0.689c0.203-0.086,0.354-0.283,0.449-0.594c0.331-0.214,0.588-0.331,0.77-0.353c0.054,0.086,0.118,0.128,0.193,0.128
		l0.32-0.465l0.145,0.225l0.064-0.225l1.202-0.417l-0.353-0.08l0.32,0.032c0.374,0,0.604-0.118,0.69-0.354
		c0.502,0,1.063-0.074,1.684-0.224l-0.16-0.145c0.053-0.043,0.149-0.064,0.288-0.064c0.161,0,0.268,0.021,0.321,0.064l-0.097-0.097
		l0.272,0.032c0.214,0,0.354-0.097,0.417-0.289h0.177l0.385-0.031c0.064,0,0.097,0.011,0.097,0.031v0.129
		c0.149-0.107,0.294-0.16,0.433-0.16h0.192l1.94-0.193l0.097,0.193v-0.225l0.433-0.273c0.107,0.225,0.326,0.337,0.658,0.337h0.16
		c0.523,0,0.877,0.054,1.059,0.161l-0.241,0.031c0.417,0,1.016,0.126,1.797,0.377c0.78,0.252,1.171,0.66,1.171,1.228
		c0,0.417-0.278,0.668-0.834,0.754l-0.129-0.289l-1.074-0.369h-0.465l-0.369-0.449l-0.689,0.097l-0.225-0.225l-0.289,0.353
		l-0.465-0.353l-0.994,0.128l-1.106-0.305l-0.305,0.177c-0.695,0.032-1.107,0.097-1.235,0.192c-0.043-0.021-0.123-0.032-0.24-0.032
		c-0.16,0-0.311,0.086-0.449,0.257l-0.77,0.064l-2.037,0.754l-0.514-0.129l-0.753,0.594h-0.434l-0.32,0.465l-0.834,0.594
		c-0.086,0.043-0.129,0.085-0.129,0.128v0.032c0.107,0.353,0.171,0.646,0.192,0.882l0.337,0.16l0.16,0.337l0.498,0.129l0.368,0.256
		c0.107,0.075,0.412,0.209,0.914,0.401l0.064,0.16h0.754l0.979,0.658l0.4-0.129c0.246,0.075,0.506,0.203,0.778,0.385
		c0.272,0.183,0.462,0.273,0.569,0.273c0.096,0,0.214-0.043,0.353-0.129v0.225l1.123,0.097l0.337,0.208v-0.112h0.225l0.497,0.337
		c0.588,0,0.988,0.064,1.202,0.192c0.129-0.021,0.294-0.032,0.497-0.032c0.278,0,0.521,0.1,0.73,0.297
		c0.208,0.198,0.36,0.297,0.457,0.297h0.063l0.354-0.097l0.24,0.097h0.449l0.898,0.657L163.925,94.532z"/>
	<path fill="#808080" d="M203.169,84.412c-0.031,0.16-0.085,0.283-0.16,0.369h-0.353l-0.241,0.16l-0.448-0.16l-0.529,0.031
		c-0.257,0-0.409-0.037-0.457-0.112c-0.049-0.074-0.126-0.112-0.232-0.112c-0.086,0-0.23,0.064-0.434,0.193
		c-0.139-0.086-0.278-0.129-0.417-0.129s-0.355,0.059-0.649,0.177c-0.294,0.117-0.505,0.176-0.634,0.176
		c-0.106,0-0.256-0.01-0.449-0.031c-0.192-0.021-0.342-0.032-0.448-0.032c-0.14,0-0.225,0.063-0.257,0.192
		c-0.171-0.129-0.348-0.192-0.529-0.192c-0.311,0-0.626,0.134-0.946,0.4l-0.337-0.176l-0.289,0.176l-0.753-0.24l-0.529,0.305h-0.594
		c-0.353,0.086-0.631,0.152-0.834,0.2c-0.203,0.049-0.471,0.158-0.802,0.329l-0.305-0.209l-0.577,0.466l-0.594-0.032l-0.433,0.786
		l0.16,0.625c-0.214,0.054-0.321,0.337-0.321,0.851l0.032,0.272l-0.032,0.689l0.097,0.128l-0.225,0.192l0.128,0.192
		c-0.16,0.343-0.24,0.642-0.24,0.898c0,0.481,0.289,0.722,0.866,0.722c0.085,0,0.222-0.026,0.409-0.08
		c0.187-0.054,0.377-0.054,0.569,0s0.368,0.08,0.529,0.08l0.497-0.208l0.513,0.176l0.337-0.096l0.321,0.032l0.497-0.112l0.288,0.08
		h0.08c0.129,0,0.321-0.069,0.578-0.209c0.192,0.097,0.419,0.134,0.682,0.112c0.262-0.021,0.451-0.048,0.569-0.08l0.433-0.096
		l0.722,0.128c0.064,0,0.128-0.064,0.192-0.192c0.545,0.106,0.877,0.16,0.994,0.16l0.354-0.032l1.122,0.064l0.594-0.128
		c0.032-0.129,0.16-0.193,0.385-0.193l0.754,0.097l0.305-0.064l0.417,0.161l0.433-0.097l-0.096,0.401
		c-0.385,0.149-0.669,0.224-0.851,0.224c-0.054,0-0.168-0.023-0.345-0.071c-0.176-0.049-0.339-0.078-0.489-0.089l-0.85,0.417
		l-0.722-0.063l-0.417,0.16l-0.305-0.064l-0.529,0.305l-0.353-0.096l-1.315,0.031c-0.149,0-0.294,0.064-0.433,0.193l-0.449-0.129
		l-0.241,0.225l-0.417-0.128l-0.24,0.225l-0.625-0.289l-0.449,0.289l-0.529-0.129c-0.043-0.021-0.129-0.032-0.257-0.032
		c-0.16,0-0.385,0.043-0.674,0.129l-0.385,0.128l-1.187,0.112l-0.257-0.145c-0.118,0.086-0.449,0.177-0.994,0.272l-0.257,0.626
		l0.305,1.7l-0.177,0.225l0.209,0.529l-0.032,0.593l0.112,0.161c0.032,0.042,0.091,0.363,0.177,0.962l0.288,0.32l-0.16,0.562
		l0.337-0.096l0.594,0.914c0.823,0.642,1.545,0.962,2.165,0.962l0.593,0.097c0.107,0,0.337-0.043,0.69-0.129l0.128-0.176h0.289
		c0.224,0,0.376-0.003,0.457-0.009c0.08-0.005,0.313-0.131,0.697-0.377c0.299,0,0.476-0.042,0.529-0.128l0.353-0.097
		c0.129-0.031,0.251-0.09,0.369-0.176l0.449-0.353c0.128-0.182,0.294-0.358,0.497-0.529l0.433-0.032l0.818-0.722
		c0.663-0.192,1.059-0.546,1.187-1.059l0.225,0.128l0.097-0.513l0.433-0.032l0.064-0.497h0.096c0.203,0,0.348,0.128,0.434,0.385
		l-1.123,1.459l-0.401,0.097c-0.385,0.588-0.646,0.925-0.785,1.011l-0.818,0.561l-0.529,0.497l-0.225-0.031l-0.4,0.417l-1.508,0.625
		l-0.353,0.464l-0.529-0.16l-0.16,0.258l-0.145-0.033l-0.257,0.225l-0.882-0.191l-1.091,0.496l-0.786-0.305l-1.347-0.689
		c-0.385-0.203-0.729-0.514-1.035-0.931c-0.305-0.417-0.614-1.088-0.93-2.013s-0.473-1.43-0.473-1.516l0.111-0.465l-0.24-0.626
		l0.24-0.288l-0.305-1.78c-0.288-0.363-0.454-0.569-0.497-0.617c-0.043-0.049-0.063-0.158-0.063-0.329
		c0-0.396,0.093-0.639,0.28-0.729c0.187-0.091,0.28-0.142,0.28-0.152v-0.209c0-0.149,0.102-0.245,0.305-0.288l0.097-0.466
		l-0.097-0.192v-0.93l-0.111-0.385l0.368-0.995c0.107-0.406,0.192-0.7,0.257-0.882l-0.417-0.529l-0.722,0.064h-0.064
		c-0.117,0-0.225-0.046-0.32-0.137c-0.097-0.091-0.145-0.194-0.145-0.313c0-0.203,0.145-0.465,0.433-0.786
		c0.107-0.042,0.182-0.102,0.225-0.176c0.386-0.149,0.604-0.225,0.658-0.225c0.074,0,0.149,0.054,0.225,0.16
		c0.063-0.149,0.154-0.225,0.272-0.225c0.32,0,0.48-0.096,0.48-0.289c0-0.063-0.031-0.144-0.096-0.24l1.091,0.064l0.192,0.369
		c0.342-0.246,0.694-0.369,1.059-0.369l0.225,0.032l0.689-0.161c0.171,0,0.39-0.074,0.657-0.224v0.224
		c0.192-0.171,0.465-0.256,0.818-0.256l0.561,0.032h0.097l3.127-0.306l0.722,0.306l0.225-0.401c0.054,0.16,0.14,0.24,0.257,0.24
		c0.032,0,0.134-0.026,0.305-0.08l0.353,0.209l0.241-0.209l0.593,0.241l0.386-0.097l0.192,0.16l1.059-0.096l0.16,0.096
		C202.875,84.241,203.147,84.336,203.169,84.412z"/>
	<path fill="#808080" d="M243.104,87.443l-0.417,0.657l0.064,0.514l0.16-0.064c0,0.149-0.075,0.4-0.225,0.754l-0.192,0.433v1.685
		l-0.337,0.753l0.064,0.481l-0.289,1.491l0.128,0.386l-0.256,1.187l0.063,0.529l-0.24,0.85l0.24,0.818l-0.529,0.817l0.129,0.466
		l-0.289,0.561l0.16,0.321l0.129,1.539l0.225,0.498c-0.16,0.107-0.278,0.24-0.354,0.4l-0.305-0.064l-0.16-1.619l-0.225-0.064
		c-0.021-0.192-0.034-0.388-0.04-0.585c-0.005-0.198-0.014-0.394-0.023-0.586v-0.642c0-0.234-0.032-0.411-0.097-0.529l-0.208-0.417
		l-0.626-0.096l-0.353-0.434l-0.16,0.209l-0.306-0.369l-0.528,0.16l-0.642-0.513l-0.337,0.064l-0.658-0.129l-0.385-0.4l-0.24,0.063
		l-2.005-1.283l-0.225-0.288l-0.689-0.305l-0.433-0.546l-0.386-0.208l-0.529-0.529l-1.475-0.642l-1.059-1.347l-0.449-0.032
		l-0.24-0.369c-0.3-0.128-0.647-0.422-1.043-0.882h0.16c-0.203-0.182-0.38-0.434-0.529-0.754l-0.225-0.08h-0.063
		c-0.235,0-0.388,0.074-0.457,0.225c-0.07,0.149-0.147,0.471-0.232,0.962l-0.306,1.684l0.306,1.011l-0.466,1.684
		c0.129,0.674,0.192,1.043,0.192,1.107v0.128c0,0.268-0.069,0.481-0.208,0.642c-0.14,0.16-0.209,0.278-0.209,0.353
		c0,0.054,0.139,0.129,0.417,0.225l-0.192,0.689v0.818l-0.16,0.898l0.16,0.353l-0.16,0.24c-0.043,0.652-0.188,1.166-0.433,1.541
		h-0.225c-0.268,0-0.401-0.209-0.401-0.627v-0.127l0.401-1.284l-0.161-0.529l0.225-0.689l-0.225-0.257l0.257-0.529l-0.368-0.497
		c0.053-0.257,0.08-0.465,0.08-0.625c0-0.171-0.027-0.412-0.08-0.722l0.144,0.063l0.129-0.32l-0.272-0.497l0.272-0.754l-0.161-0.979
		l0.225-1.059l-0.192-0.722l0.225-1.571l-0.032-1.219l0.161-1.123l-0.161-0.353l0.032-1.588l0.369-0.097
		c-0.289-0.277-0.433-0.529-0.433-0.754c0-0.128,0.063-0.245,0.192-0.353l0.593,0.129l0.16-0.225
		c0.203,0.16,0.306,0.331,0.306,0.513c0,0.129-0.06,0.283-0.177,0.465h0.465l0.064,0.754l0.4,0.337l0.064,0.481l0.529,0.337
		l0.177,0.673c0.063,0.257,0.176,0.449,0.337,0.578l1.09,0.785v0.064c0,0.171,0.112,0.369,0.337,0.594l0.754,0.513l0.818,0.963
		l2.565,2.133h0.289c0.235,0.192,0.385,0.369,0.449,0.529c0.063,0.16,0.122,0.246,0.176,0.257l1.043,0.336l0.834,0.69l0.48,0.16
		l0.931,0.529l0.882,0.257c0.546,0.545,1.005,0.817,1.38,0.817l0.497-0.128h0.096l0.064-0.914l0.465-0.995l-0.24-0.224l0.096-1.54
		l0.369-0.562l-0.048-0.369c-0.011-0.106-0.118-0.325-0.321-0.657l0.369-1.283l-0.16-1.202l0.32-2.342l-0.385-0.417l0.449-1.348
		l-0.16-0.176l0.225-0.289l-0.064-0.225l0.497-0.24l0.097,0.24l0.465-0.096c-0.064,0.225-0.097,0.428-0.097,0.609
		c0,0.214,0.054,0.403,0.161,0.569c0.106,0.166,0.16,0.275,0.16,0.328l-0.225,0.626L243.104,87.443z M238.421,79.52
		c-0.086,0.235-0.129,0.486-0.129,0.754l-0.4,0.4c-0.354,0.075-0.68,0.198-0.979,0.369l-0.177,0.289
		c-0.556,0.246-0.983,0.342-1.283,0.288l-0.978-0.16c-0.15-0.214-0.327-0.32-0.529-0.32c-0.086,0-0.15,0.011-0.193,0.031
		c0.097-0.213,0.161-0.379,0.193-0.497l-0.417-0.096v-0.225l-0.241-0.24l0.064-0.129c-0.471-0.106-0.861-0.16-1.171-0.16
		l-1.059,0.625c-0.064,0.15-0.2,0.268-0.409,0.354c-0.208,0.085-0.313,0.166-0.313,0.24c0,0.054,0.043,0.107,0.129,0.16
		c-0.161,0.524-0.401,0.786-0.723,0.786c-0.042,0-0.149-0.021-0.32-0.064c-0.16-0.245-0.24-0.465-0.24-0.657
		c0-0.106,0.037-0.214,0.112-0.32c0.074-0.107,0.173-0.203,0.296-0.289s0.238-0.225,0.346-0.417c0.106-0.192,0.187-0.311,0.24-0.353
		l0.417-0.225c0.043-0.214,0.134-0.337,0.272-0.369c0.523-0.043,0.931-0.197,1.219-0.465l0.546-0.064c0.31,0,0.566,0.134,0.77,0.401
		l0.417,0.096c0.257,0.278,0.529,0.497,0.817,0.657l0.032,0.289c0.203,0.075,0.38,0.22,0.529,0.433l0.225,0.032
		c0.182,0,0.294-0.074,0.337-0.225c0.396,0,0.604-0.059,0.626-0.176l0.433-0.032c0.021-0.192,0.085-0.411,0.192-0.657
		c-0.054-0.086-0.166-0.129-0.337-0.129v-0.288c0.438-0.503,0.738-0.754,0.898-0.754S238.057,78.782,238.421,79.52z"/>
	<path fill="#808080" d="M284.546,93.184c0,0.16-0.075,0.272-0.225,0.337l-0.529-0.177l-0.594,0.466l-0.689-0.097
		c-0.278,0.192-0.583,0.289-0.914,0.289c-0.257,0-0.423,0.059-0.497,0.176c-0.268-0.117-0.519-0.176-0.754-0.176
		c-0.225,0-0.369,0.08-0.433,0.24c0.042,0.107,0.122,0.203,0.24,0.289l-0.097,0.336l0.097,1.107l0.417,0.625l0.08,0.594l0.722,1.059
		l-0.112,0.48l0.497,0.466l0.754,1.282c0.396,0.46,0.626,0.787,0.689,0.978l0.594,0.305l0.225,0.514l0.24,0.176l-0.433,0.322
		l-0.529-0.418h-0.321l-0.433-0.336h-0.321l-0.305-0.563l-0.32-0.16c-0.257-0.513-0.54-0.918-0.85-1.218v-0.321l-0.306-0.272
		l-0.031-0.513l-0.497-0.529l-0.69-1.652l-0.225-0.288l-0.112-0.818c-0.011-0.085-0.149-0.337-0.417-0.754v-0.689h-0.385
		l-0.433,0.289l-0.657-0.129l-0.449,0.289l-0.177-0.16l-0.353,0.225l-0.097-0.225c-0.054,0-0.163,0.031-0.328,0.096
		c-0.166,0.064-0.345,0.097-0.538,0.097l-0.417-0.032h-0.561l-0.562,0.369l-0.594-0.129l-0.817,0.064v0.16l-0.289-0.16l-0.401,0.225
		l-0.288-0.225h-0.529l-0.529,0.225l-0.433-0.465l-0.225,0.176l-0.466-0.176c-0.363,0.16-0.865,0.722-1.507,1.684l-0.529,0.128
		c-0.877,1.348-1.348,2.026-1.412,2.037l-0.288,0.16l-0.914,1.187h-0.177l-0.786,1.283l-0.85,0.529l-0.657-0.176l0.128-0.289v-0.464
		l0.24-0.289l-0.112-0.225l0.594-0.08l0.401-0.225c0.353-0.149,0.571-0.422,0.657-0.817c0.449-0.118,0.711-0.369,0.786-0.754
		c0.523-0.3,0.876-0.791,1.059-1.476l0.448-0.177l1.059-1.636v-0.465c-0.149-0.118-0.262-0.278-0.337-0.481l0.626-0.562v-0.24
		l0.754,0.08l0.433-0.272l0.097,0.128l0.433-0.577c-0.096-0.021-0.145-0.069-0.145-0.145c0-0.053,0.155-0.182,0.466-0.385
		l0.128,0.192c0.021-0.267,0.134-0.582,0.337-0.946l-0.097-0.063l0.386-0.032l0.128-0.434c0.267-0.032,0.4-0.144,0.4-0.337v-0.385
		c0.524-0.449,0.786-0.866,0.786-1.251v-0.063l0.434-0.064l0.096-0.465l0.225-0.064l0.337-0.689l0.225,0.16l-0.16-0.353
		c0.32-0.032,0.497-0.241,0.529-0.626l0.224,0.129v-0.658h0.225v-0.465c0.043-0.043,0.166-0.152,0.369-0.329
		c0.203-0.176,0.331-0.414,0.385-0.713l0.369-0.369l-0.225-0.514c0.299-0.396,0.583-0.593,0.85-0.593h0.064L275.612,83l0.225,0.337
		c0.054,0.063,0.149,0.134,0.289,0.208l0.545,0.272l0.064,0.834c0.149,0.129,0.288,0.348,0.417,0.658l0.272,0.096l0.064,0.722
		l0.256,0.979l0.434,0.754l0.288,1.059l0.064,0.689l0.465,0.625l-0.128,0.257l0.353,0.401v0.497l0.08,0.449
		c0,0.085-0.048,0.197-0.144,0.336c0.331,0.781,0.716,1.171,1.154,1.171l0.626-0.128h0.753c0.235,0.064,0.434,0.096,0.594,0.096
		c0.278,0,0.494-0.063,0.649-0.192c0.155-0.128,0.254-0.192,0.297-0.192c0.064,0,0.262,0.097,0.594,0.289L284.546,93.184z
		 M278.307,92.367c-0.139-0.364-0.315-0.604-0.529-0.723l0.177-0.465l-0.433-0.225l-0.129-1.251l-0.4-0.625l-0.064-0.529
		l-0.225-0.449v-0.177h-0.097l-0.063-0.705c0-0.075-0.06-0.192-0.177-0.353l-0.225-0.354c-0.043-0.063-0.131-0.145-0.265-0.24
		c-0.134-0.097-0.339-0.209-0.617-0.337l-0.369,0.192l-0.225,0.385l-0.785,1.123l-0.192,0.369c-0.054,0.106-0.311,0.39-0.771,0.85
		l-0.128,0.529l-0.689,0.353c-0.161,0.834-0.487,1.315-0.979,1.443l-0.305,0.994l-0.657,0.257v0.337l-0.097,0.417
		c0.385,0.118,0.657,0.23,0.818,0.337l0.4-0.032l0.657,0.16c0.129,0.043,0.225,0.064,0.289,0.064c0.097,0,0.251-0.021,0.465-0.064
		c0.021-0.021,0.064-0.032,0.129-0.032c0.032,0,0.114,0.022,0.248,0.064c0.134,0.043,0.26,0.064,0.377,0.064l0.434-0.097
		l1.282-0.096l1.043-0.145c0.674,0.097,1.101,0.145,1.283,0.145c0.502,0,0.754-0.112,0.754-0.337c0-0.139-0.097-0.326-0.289-0.562
		L278.307,92.367z"/>
</g>
</svg>
